<?xml version="1.0" encoding="utf-8"?>
<!-- Generator: Adobe Illustrator 23.0.1, SVG Export Plug-In . SVG Version: 6.00 Build 0)  -->
<svg version="1.1" id="_x32_" xmlns="http://www.w3.org/2000/svg" xmlns:xlink="http://www.w3.org/1999/xlink" x="0px" y="0px"
	 viewBox="0 0 512 512" style="enable-background:new 0 0 512 512;" xml:space="preserve">
<style type="text/css">
	.st0{fill:url(#SVGID_1_);}
</style>
<linearGradient id="SVGID_1_" gradientUnits="userSpaceOnUse" x1="361.7389" y1="385.8714" x2="158.4525" y2="33.769">
	<stop  offset="0" style="stop-color:#89F7FE"/>
	<stop  offset="1" style="stop-color:#66A6FF"/>
</linearGradient>
<path class="st0" d="M403.2,74.2c-13.4,7.6-29.7,13.9-44.1,11.5c-22.7-3.8-81.3-3.5-120.2,10.6c-38.9,14.1-109.6,58.3-130.8,65.4
	c-21.2,7.1-23,35.4,24.8,40.7c47.7,5.3,90.2-24.8,100.8-30.1c10.6-5.3,113.2,10.6,113.2,10.6l32.3,8l74.4,100.6
	c13.1-11.3,38.9-35.4,45.4-53.7c2.4-6.7,5.9-12.8,9.8-18.2l0.8,1.1C526.9,181.6,451.8,57.1,403.2,74.2z M359.1,205.6l-15.6-1.6
	c-20.5-3.2-78.5-11.4-100.3-11.4c-1,0-1.7,0-2.3,0c-0.9,0.5-1.9,1.1-2.9,1.7c-15.5,9-51.7,30.1-93.8,30.1c-4.6,0-9.3-0.3-13.8-0.8
	c-6.8-0.8-12.8-1.9-18.2-3.4c5,2.2,9.7,5.4,13.6,9.4c6.2,6.4,10.1,14.2,11.6,22.4c3.6-1,7.4-1.5,11.2-1.5c11.8,0,22.8,4.6,31.1,13.1
	c8.1,8.3,12.5,19.3,12.4,30.9c0,0.1,0,0.2,0,0.3c11.7,0,22.7,4.7,31,13.1c8.1,8.3,12.5,19.3,12.4,30.9c0,4-0.7,7.9-1.7,11.7
	c8.3,1.7,16,5.9,22.1,12.1c16.8,17.1,16.5,44.7-0.7,61.5l-8.6,8.4c0,0,0.1,0,0.1,0c14.4-1,26.6-9.9,30-23.3
	c5.9,4.6,13.3,7.4,21.3,7.4c19,0,34.5-15.4,34.5-34.5c0-2-0.2-3.9-0.5-5.9c6.1,5.3,14,8.5,22.6,8.5c19,0,34.5-15.4,34.5-34.5
	c4.1,1.7,8.6,2.7,13.3,2.7c19,0,34.5-15.4,34.5-34.5c0-14.5-7.1-23.9-23.9-43.3L359.1,205.6z M110.7,244.4
	c-8.6-8.8-22.7-8.9-31.5-0.3l-31.8,31.1c-8.8,8.6-8.9,22.7-0.3,31.5s22.7,8.9,31.5,0.3l31.8-31.1
	C119.2,267.3,119.3,253.2,110.7,244.4z M164.7,278.3c-8.6-8.8-22.7-9-31.5-0.3l-42.4,41.5c-8.8,8.6-8.9,22.7-0.3,31.5
	c8.6,8.8,22.7,9,31.5,0.3l42.4-41.5C173.1,301.2,173.3,287.1,164.7,278.3z M208,322.6c-8.6-8.8-22.7-9-31.5-0.3l-42.4,41.5
	c-8.8,8.6-8.9,22.7-0.3,31.5c8.6,8.8,22.7,8.9,31.5,0.3l42.4-41.5C216.5,345.5,216.6,331.4,208,322.6z M240.8,377.3
	c-8.6-8.8-22.7-9-31.5-0.3l-24.8,24.2c-8.8,8.6-8.9,22.7-0.3,31.5c8.6,8.8,22.7,8.9,31.5,0.3l24.8-24.2
	C249.2,400.2,249.4,386.1,240.8,377.3z M94.8,216.5c3.3,0,6.6,0.4,9.8,1.1c-26.7-10.3-31.2-29-31.9-35.6c-1.9-17.8,9.6-34,28.5-40.3
	c7.6-2.5,27.6-13.4,46.9-24c20.7-11.3,43.5-23.7,63.3-32.8c-25.1-2-48.6-1.2-61.2,0.9c-13.5,2.3-28.6-3.1-41.5-10.1
	C60.2,58.5-14.9,183,2.6,222.2c3.2,4.8,6,10,8.1,15.7c3,8.3,9.9,17.8,17.9,26.8c1.2-1.6,2.6-3.2,4-4.6l31.8-31.1
	C72.6,220.9,83.4,216.5,94.8,216.5z"/>
</svg>
